<?xml version="1.0" standalone="no"?>
<!DOCTYPE svg PUBLIC "-//W3C//DTD SVG 20010904//EN"
 "http://www.w3.org/TR/2001/REC-SVG-20010904/DTD/svg10.dtd">
<svg version="1.0" xmlns="http://www.w3.org/2000/svg"
 width="316.000000pt" height="316.000000pt" viewBox="0 0 316.000000 316.000000"
 preserveAspectRatio="xMidYMid meet">

<g transform="translate(0.000000,316.000000) scale(0.100000,-0.100000)"
fill="#000000" stroke="none">
<path d="M1510 2343 c-43 -3 -68 -9 -73 -19 -9 -16 -37 -19 -37 -4 0 7 -181
10 -522 10 l-521 0 6 -502 c4 -277 7 -581 7 -675 l0 -173 150 0 150 0 0 260 0
260 60 0 c63 0 88 -11 140 -59 23 -22 167 -141 235 -195 17 -13 67 -55 111
-92 45 -38 108 -89 140 -114 l59 -45 168 3 167 3 0 269 0 270 119 0 118 0 5
-260 c2 -143 8 -264 14 -269 10 -10 987 3 1004 14 11 7 14 244 3 284 l-6 23
-281 -6 c-155 -4 -316 -9 -358 -12 l-78 -6 0 110 0 110 48 5 c44 5 159 23 209
33 31 6 133 90 168 138 32 44 70 138 80 195 8 55 -11 150 -46 219 -41 79 -129
172 -196 206 l-52 26 -463 -2 c-255 -1 -492 -3 -528 -5z m444 -40 c3 -16 6
-71 8 -123 l3 -95 -139 -3 -139 -3 7 -123 c7 -113 6 -129 -14 -177 -33 -81
-57 -123 -77 -134 -9 -5 -41 -24 -69 -42 -76 -46 -162 -66 -255 -58 -52 5 -79
3 -83 -4 -9 -14 -5 -17 117 -115 55 -44 99 -87 102 -99 9 -46 15 -243 7 -274
l-7 -32 -111 92 c-62 51 -176 144 -254 207 -78 63 -165 134 -193 157 -54 46
-50 45 -204 43 -5 0 -6 -117 -4 -260 l4 -260 -132 0 -131 0 0 655 0 655 493 0
c458 0 495 -1 510 -17 12 -14 15 -43 16 -136 0 -108 -2 -118 -17 -112 -79 32
-108 34 -427 27 l-320 -7 -3 -142 -3 -143 327 0 327 0 54 26 c30 15 68 40 85
56 28 26 30 32 24 71 -11 71 -19 312 -12 350 l7 37 197 3 c108 1 220 3 249 5
49 2 52 1 57 -25z m286 17 c12 -8 16 -48 18 -240 l4 -230 -131 0 -131 0 -1 88
c-1 48 -4 152 -8 232 -4 80 -5 148 -3 153 5 10 234 8 252 -3z m318 -24 c67
-35 166 -159 198 -250 33 -93 7 -251 -54 -326 -122 -150 -163 -160 -649 -160
l-331 0 5 -263 c5 -197 3 -266 -6 -271 -6 -4 -67 -4 -135 0 l-123 7 -6 111
c-3 62 -3 176 0 253 l6 141 41 13 c23 7 50 20 61 30 11 10 30 21 42 26 24 9
84 89 112 149 11 23 25 45 31 49 6 4 166 10 356 14 l344 7 40 39 c31 30 40 47
40 73 0 36 -27 92 -45 92 -5 0 -20 11 -32 24 -18 18 -38 25 -93 30 l-70 7 0
68 c0 38 -3 89 -6 115 l-7 46 117 0 c104 0 122 -3 164 -24z m-105 -268 c20
-17 42 -39 48 -50 15 -28 2 -71 -31 -103 -26 -25 -36 -28 -107 -29 l-78 -1 -3
99 c-1 55 0 106 2 113 10 26 124 5 169 -29z m-473 -78 l0 -110 -124 0 -124 0
-5 33 c-3 17 -9 67 -13 110 l-6 77 136 0 136 0 0 -110z m-639 90 c42 -12 86
-62 95 -109 7 -34 -20 -65 -87 -100 -38 -20 -56 -21 -364 -21 l-325 0 0 115 0
114 73 4 c176 8 575 6 608 -3z m95 -587 c-4 -43 -9 -79 -11 -81 -4 -4 -148
109 -153 121 -2 4 -10 7 -18 7 -8 0 -14 4 -14 10 0 5 35 11 78 13 42 1 88 4
101 5 24 2 24 2 17 -75z m832 -47 l3 -118 97 6 c53 3 218 8 366 12 l269 6 -8
-133 c-4 -74 -9 -136 -12 -139 -2 -2 -219 -6 -482 -8 l-479 -4 -7 240 c-4 132
-4 245 0 251 4 8 46 11 128 9 l122 -3 3 -119z"/>
</g>
</svg>
